<svg width="11" height="7" viewBox="0 0 11 7" fill="none" xmlns="http://www.w3.org/2000/svg">
<path fill-rule="evenodd" clip-rule="evenodd" d="M0.229529 1.20999C0.372788 1.07216 0.564907 0.996848 0.763669 1.0006C0.96243 1.00435 1.15157 1.08686 1.28953 1.22999L4.99953 5.16799L8.70953 1.22999C8.77697 1.15565 8.85864 1.0956 8.94971 1.0534C9.04078 1.01119 9.1394 0.987704 9.23971 0.984314C9.34003 0.980925 9.44001 0.997706 9.53372 1.03366C9.62743 1.06962 9.71297 1.12402 9.78527 1.19365C9.85757 1.26327 9.91516 1.3467 9.95463 1.43899C9.9941 1.53127 10.0146 1.63055 10.015 1.73092C10.0154 1.83129 9.99568 1.93072 9.95694 2.02332C9.91821 2.11592 9.86128 2.1998 9.78953 2.26999L5.53953 6.76999C5.46957 6.84258 5.38569 6.90032 5.29291 6.93975C5.20012 6.97919 5.10034 6.99951 4.99953 6.99951C4.89871 6.99951 4.79893 6.97919 4.70615 6.93975C4.61337 6.90032 4.52949 6.84258 4.45953 6.76999L0.209529 2.26999C0.0716989 2.12674 -0.00361659 1.93462 0.000133631 1.73585C0.00388385 1.53709 0.0863929 1.34795 0.229529 1.20999Z" fill="#174B7C"/>
</svg>
